# xmcd CD database file
#
# Track frame offsets:
#	150
#	14173
#	28680
#	41711
#	55206
#	68699
#	86068
#	100243
#	112376
#	125055
#	139385
#	150714
#
# Disc length: 2164 seconds
#
# Revision: 0
# Processed by: cddbd v1.5.1PL0 Copyright (c) Steve Scherf et al.
# Submitted via: CDex 1.51
#
DISCID=b408720c
DTITLE=Lee Konitz - Jazz HIstory 8
DYEAR=2005
DGENRE=Jazz
TTITLE0=Progression
TTITLE1=Retrospection
TTITLE2=Subconscious-Lee
TTITLE3=Judy
TTITLE4=Msrshmallow
TTITLE5=Fishin' Around
TTITLE6=Rebecca
TTITLE7=You Go To My Head
TTITLE8=Ice Cream Konitz
TTITLE9=Hibeck
TTITLE10=Yesterdays
TTITLE11=Indian Summer
EXTD=YEAR: 2005
EXTT0=
EXTT1=
EXTT2=
EXTT3=
EXTT4=
EXTT5=
EXTT6=
EXTT7=
EXTT8=
EXTT9=
EXTT10=
EXTT11=
PLAYORDER=
